<svg xmlns="http://www.w3.org/2000/svg" viewBox="0 0 1253.88 416.09"><defs><style>.cls-1{fill:none;stroke:#fff;stroke-miterlimit:10;}.cls-2{fill:#f26b21;}.cls-3{fill:#467d95;}</style></defs><title>9f3252be540cfd7cbaf91c110636dbc</title><g id="图层_2" data-name="图层 2"><circle class="cls-1" cx="1251.13" cy="413.34" r="2.25"/><rect class="cls-2" x="12.12" width="14.04" height="14.04"/><path class="cls-3" d="M-423.7,492.31c-15.95-3.46-44.65,4.17-51.59,36.17-4.67,21.53,8.13,45,33.2,50.43,18.23,4,45-5.95,51.51-35.77C-385.61,520.22-399.77,497.5-423.7,492.31Zm-8.09,80.77c-16.22,0-29.37-16.68-29.37-37.25s13.15-37.26,29.37-37.26,29.36,16.68,29.36,37.26S-415.58,573.08-431.79,573.08Z" transform="translate(495.38 -470.27)"/><path class="cls-2" d="M-483.4,536.42c0-17,6.35-31.76,15.58-38.83v-6h-27.56V498h7.51v75.34h-7.51v6.43h38.28v-.08C-471.76,578.33-483.4,559.48-483.4,536.42Z" transform="translate(495.38 -470.27)"/></g></svg>